<svg id="ico-fav" xmlns="http://www.w3.org/2000/svg" width="18" height="16.515" viewBox="0 0 18 16.515">
  <path id="ico-fav-2" data-name="ico-fav" d="M15.05,3A5.39,5.39,0,0,0,11,4.881,5.39,5.39,0,0,0,6.95,3,4.9,4.9,0,0,0,2,7.95c0,3.4,3.06,6.174,7.695,10.386L11,19.515,12.3,18.327C16.94,14.124,20,11.352,20,7.95A4.9,4.9,0,0,0,15.05,3ZM11.09,16.995l-.09.09-.09-.09C6.626,13.116,3.8,10.551,3.8,7.95A3.076,3.076,0,0,1,6.95,4.8a3.519,3.519,0,0,1,3.213,2.124h1.683A3.5,3.5,0,0,1,15.05,4.8,3.076,3.076,0,0,1,18.2,7.95C18.2,10.551,15.374,13.116,11.09,16.995Z" transform="translate(-2 -3)" fill="#243f71"/>
</svg>
